<svg width="122" height="122" viewBox="0 0 122 122" fill="none" xmlns="http://www.w3.org/2000/svg">
<path d="M60.5378 0C27.1029 0 0 27.1144 0 60.5607C0 94.0071 27.1144 121.099 60.5378 121.099C93.9613 121.099 121.076 93.9842 121.076 60.5607C121.076 27.1373 93.9957 0 60.5378 0ZM52.2134 51.6753L39.9845 83.9423C39.6295 84.8698 38.7593 85.4652 37.7975 85.4652H32.5418C30.9158 85.4652 29.7823 83.8392 30.3548 82.2934L39.3891 58.4768L36.8128 51.6753L24.5838 83.9423C24.2518 84.8698 23.3815 85.4652 22.4197 85.4652H17.1411C15.5266 85.4652 14.4045 83.8392 14.977 82.2934L31.9922 37.4196C32.1411 36.8815 32.4731 36.4235 32.9311 36.1029C32.954 36.1029 32.954 36.08 32.954 36.08C33.1601 35.954 33.3662 35.8624 33.5838 35.7822C33.5838 35.7822 33.5952 35.7746 33.6181 35.7593C33.8357 35.6906 34.0647 35.6448 34.3052 35.6448H39.3433C39.5837 35.6448 39.8242 35.6792 40.0418 35.7593C40.0418 35.7593 40.0647 35.7593 40.0761 35.7822C40.2937 35.8509 40.4998 35.954 40.683 36.08C40.683 36.08 40.7059 36.1029 40.7173 36.1029C41.1753 36.412 41.496 36.8815 41.6563 37.4196L44.4845 44.9425L47.3356 37.4196C47.4845 36.8815 47.8394 36.4235 48.2974 36.1029C48.2974 36.1029 48.2974 36.08 48.3203 36.08C48.5035 35.954 48.7096 35.8624 48.9272 35.7822C48.9272 35.7822 48.9386 35.7746 48.9615 35.7593C49.1791 35.6906 49.4081 35.6448 49.66 35.6448H54.6753C54.9386 35.6448 55.1791 35.6792 55.3967 35.7593L55.4195 35.7822C55.6371 35.8509 55.8661 35.954 56.0493 36.08L56.0722 36.1029C56.5302 36.412 56.8737 36.8815 57.034 37.4196L61.8432 50.4272C61.9691 50.7593 61.9691 51.1257 61.8432 51.4577L58.2592 60.8699C57.7783 62.1294 55.9921 62.118 55.5226 60.8584L52.1677 51.6982L52.2134 51.6753ZM89.1064 83.6789C88.9346 84.2171 88.6026 84.6751 88.1445 85.0072C88.1445 85.0072 88.1217 85.0072 88.1217 85.0301C87.9385 85.1446 87.7095 85.2476 87.4919 85.3278C87.4919 85.3278 87.469 85.3278 87.4576 85.3507C87.2514 85.4079 87.011 85.4652 86.7705 85.4652H81.7324C81.4919 85.4652 81.2515 85.4079 81.0454 85.3507C81.0225 85.3278 81.011 85.3278 81.011 85.3278C80.7935 85.2591 80.5873 85.1446 80.3812 85.0301C80.3812 85.0072 80.3583 85.0072 80.3583 85.0072C79.9003 84.6751 79.5568 84.2057 79.3965 83.6789L76.5683 76.179L73.7401 83.6789C73.5683 84.2171 73.2362 84.6751 72.7782 85.0072C72.7782 85.0072 72.7553 85.0072 72.7439 85.0301C72.5607 85.1446 72.3546 85.2476 72.137 85.3278C72.137 85.3278 72.1141 85.3278 72.1027 85.3507C71.8851 85.4079 71.6446 85.4652 71.4042 85.4652H66.3889C66.1485 85.4652 65.908 85.4079 65.6905 85.3507C65.6676 85.3278 65.6561 85.3278 65.6561 85.3278C65.4386 85.2591 65.2325 85.1446 65.0493 85.0301L65.0263 85.0072C64.5683 84.6751 64.2134 84.2057 64.0645 83.6789L63.4348 82.053C63.3775 81.9614 63.3203 81.8698 63.2859 81.7782L59.6791 71.9424C59.5531 71.6103 59.5646 71.2553 59.6791 70.9233L63.2744 61.4653C63.7554 60.2058 65.5416 60.2172 66.0111 61.4768L68.9424 69.4118L81.1484 37.1677C81.5034 36.2746 82.3736 35.6677 83.3354 35.6677H88.5911C90.2171 35.6677 91.3507 37.2937 90.7781 38.8166L81.7438 62.6561L84.2973 69.4576L96.5376 37.1792C96.8926 36.2861 97.7399 35.6792 98.7017 35.6792H103.98C105.595 35.6792 106.74 37.3051 106.144 38.828L89.1407 83.7018L89.1064 83.6789Z" fill="white"/>
</svg>
