<svg width="132" height="155" viewBox="0 0 132 155" fill="none" xmlns="http://www.w3.org/2000/svg">
<path d="M26.6529 124.934L22.8323 117.195L23.234 122.691V128.596C23.234 129.081 22.8398 129.475 22.3547 129.475H20.6718C20.1867 129.475 19.7925 129.081 19.7925 128.596V111.237C19.7925 110.691 20.2322 110.251 20.778 110.251H22.4836C22.8702 110.251 23.2189 110.478 23.3781 110.827L27.0319 118.772L30.7084 110.827C30.8676 110.478 31.2163 110.259 31.6029 110.259H33.3085C33.8543 110.259 34.294 110.698 34.294 111.244V128.77C34.294 129.164 33.9756 129.483 33.5814 129.483H31.565C31.1708 129.483 30.8525 129.164 30.8525 128.77V122.691L31.2542 117.195L27.4336 124.934H26.6604H26.6529Z" fill="white"/>
<path d="M47.7046 124.957C48.1443 124.957 48.4854 125.344 48.4323 125.776C48.1215 128.315 46.2719 129.528 42.7621 129.528C38.8885 129.528 37.0464 127.755 37.0464 123.782V120.439C37.0464 116.74 38.896 114.693 42.7621 114.693C46.6282 114.693 48.4778 116.467 48.4778 120.439V123.358H40.4879V123.729C40.4879 126.102 41.4128 126.549 42.8076 126.549C44.1038 126.549 44.7937 126.185 45.0211 125.511C45.1272 125.192 45.3925 124.95 45.7261 124.95H47.697L47.7046 124.957ZM40.4879 120.538H45.1575C45.1575 118.688 44.8088 117.665 42.8606 117.665C40.9124 117.665 40.4879 118.764 40.4879 120.538Z" fill="white"/>
<path d="M60.5228 129.483C60.0604 129.483 59.6662 129.142 59.598 128.687L59.4691 127.861C58.893 128.907 57.6726 129.559 55.9973 129.559C53.1015 129.559 51.1533 127.959 51.1533 123.866V120.068C51.1533 116.596 52.8286 114.572 56.0958 114.572C57.2935 114.572 58.5443 114.898 59.1204 115.868V111.115C59.1204 110.638 59.507 110.251 59.9846 110.251H61.6675C62.1451 110.251 62.5317 110.638 62.5317 111.115V128.535C62.5317 129.051 62.1148 129.475 61.5917 129.475H60.5153L60.5228 129.483ZM54.5721 120.219V123.691C54.5721 125.814 55.4439 126.511 56.7932 126.511C58.4913 126.511 59.1129 125.261 59.1129 123.562V120.189C59.1129 118.415 58.2638 117.741 56.8918 117.741C55.4212 117.741 54.5721 118.438 54.5721 120.212V120.219Z" fill="white"/>
<path d="M76.1996 124.957C76.7681 124.957 77.2305 125.458 77.1395 126.019C76.7378 128.391 74.9033 129.521 71.5072 129.521C67.6336 129.521 65.7915 127.747 65.7915 123.775V120.432C65.7915 116.732 67.6411 114.686 71.5072 114.686C75.3733 114.686 77.2229 116.46 77.2229 120.432V123.35H69.2331V123.722C69.2331 126.094 70.1579 126.542 71.5527 126.542C72.849 126.542 73.5388 126.178 73.7662 125.503C73.8875 125.147 74.2589 124.942 74.6304 124.942H76.1996V124.957ZM69.2331 120.538H73.9027C73.9027 118.688 73.554 117.665 71.6058 117.665C69.6576 117.665 69.2331 118.764 69.2331 120.538Z" fill="white"/>
<path d="M81.3689 110.228H82.6349C83.2261 110.228 83.7113 110.713 83.7113 111.305V124.032C83.7113 125.276 83.8856 125.875 84.6134 126.087C85.0909 126.223 85.4321 126.633 85.4321 127.125V128.361C85.4321 128.975 84.909 129.483 84.295 129.437C81.2325 129.202 80.2925 127.868 80.2925 124.086V111.305C80.2925 110.713 80.7776 110.228 81.3689 110.228Z" fill="white"/>
<path d="M89.0184 110.228H90.2616C90.8604 110.228 91.3456 110.713 91.3456 111.312V124.032C91.3456 125.314 91.5351 125.912 92.3159 126.102C92.7556 126.208 93.0663 126.602 93.0663 127.057V128.459C93.0663 129.028 92.5812 129.483 92.0202 129.445C88.8895 129.233 87.9268 127.906 87.9268 124.086V111.312C87.9268 110.713 88.4119 110.228 89.0108 110.228H89.0184Z" fill="white"/>
<path d="M97.5687 129.506H96.5454C95.8859 129.506 95.3477 128.967 95.3477 128.308V115.982C95.3477 115.482 95.757 115.072 96.2573 115.072H97.8568C98.3571 115.072 98.7665 115.482 98.7665 115.982V128.308C98.7665 128.967 98.2282 129.506 97.5687 129.506ZM97.9326 113.571H96.5075C95.9768 113.571 95.6205 113.033 95.8252 112.548L96.5833 110.744C96.7273 110.403 97.0609 110.175 97.4323 110.175H98.6982C99.4032 110.175 99.8429 110.933 99.5018 111.547L98.5845 113.192C98.4557 113.427 98.2055 113.571 97.9402 113.571H97.9326Z" fill="white"/>
<path d="M103.209 114.746H104.399C104.877 114.746 105.279 115.103 105.332 115.58L105.407 116.247C106.332 115.148 107.628 114.648 108.879 114.648C111.305 114.625 113.67 115.899 113.67 120.394V128.384C113.67 128.99 113.177 129.483 112.571 129.483H111.381C110.774 129.483 110.282 128.99 110.282 128.384V120.424C110.282 118.529 109.478 117.756 108.061 117.756C106.734 117.756 105.688 118.408 105.688 120.303V128.391C105.688 128.998 105.195 129.49 104.589 129.49H103.368C102.762 129.49 102.269 128.998 102.269 128.391V115.702C102.269 115.178 102.694 114.762 103.209 114.762V114.746Z" fill="white"/>
<path d="M6.86037 149.905L3.03979 142.165L3.44156 147.661V153.566C3.44156 154.059 3.04737 154.453 2.55464 154.453H0.886922C0.394188 154.453 0 154.059 0 153.566V136.358C0 135.737 0.507896 135.229 1.1295 135.229H2.60012C3.03979 135.229 3.44156 135.487 3.62349 135.888L7.23939 143.742L10.878 135.881C11.06 135.479 11.4617 135.229 11.9014 135.229H13.372C13.9936 135.229 14.5015 135.737 14.5015 136.358V153.634C14.5015 154.089 14.1377 154.453 13.6828 154.453H11.8711C11.4163 154.453 11.0524 154.089 11.0524 153.634V147.661L11.4542 142.165L7.63358 149.905H6.86037Z" fill="#005DF5"/>
<path d="M29.2306 154.423H26.1832L26.0089 152.922C25.084 154.021 23.7878 154.521 22.537 154.521C20.1188 154.544 17.7461 153.271 17.7461 148.775V140.573C17.7461 140.08 18.1479 139.686 18.633 139.686H20.2477C20.7404 139.686 21.1346 140.088 21.1346 140.573V148.745C21.1346 150.64 21.9305 151.413 23.3557 151.413C24.6823 151.413 25.7284 150.761 25.7284 148.866V140.566C25.7284 140.073 26.1301 139.679 26.6153 139.679H28.3285C28.8212 139.679 29.2154 140.08 29.2154 140.566V154.408L29.2306 154.423Z" fill="#005DF5"/>
<path d="M40.5784 144.341C40.1539 144.341 39.7445 144.113 39.5854 143.719C39.32 143.029 38.5923 142.718 37.7205 142.718C36.394 142.718 35.598 143.241 35.598 144.265C35.598 145.887 37.296 145.66 39.267 145.887C41.2379 146.115 43.2088 147.282 43.2088 149.905C43.2088 153.127 40.6845 154.521 37.5159 154.521C34.5291 154.521 32.5658 153.225 32.0579 151.08C31.9139 150.481 32.3611 149.905 32.9751 149.905H34.6429C35.0143 149.905 35.3857 150.117 35.507 150.466C35.742 151.14 36.3561 151.527 37.6751 151.527C38.9941 151.527 39.7445 150.754 39.7445 150.026C39.7445 148.775 38.1223 148.753 36.3485 148.525C34.2032 148.252 32.1261 147.327 32.1261 144.432C32.1261 141.111 34.4988 139.641 37.6902 139.641C40.6694 139.641 42.3598 141.028 42.8677 142.991C43.0421 143.674 42.4963 144.333 41.7913 144.333H40.5708L40.5784 144.341Z" fill="#005DF5"/>
<path d="M49.4322 136.745C49.4322 139.239 45.5586 139.269 45.5586 136.745C45.5586 134.221 49.4322 134.221 49.4322 136.745ZM48.0071 154.476H46.9382C46.2863 154.476 45.7633 153.945 45.7633 153.301V141.043C45.7633 140.49 46.2105 140.042 46.7639 140.042H48.189C48.7424 140.042 49.1897 140.49 49.1897 141.043V153.301C49.1897 153.953 48.659 154.476 48.0147 154.476H48.0071Z" fill="#005DF5"/>
<path d="M61.4019 145.212C60.894 145.212 60.4392 144.849 60.3482 144.348C60.1511 143.257 59.4916 142.718 58.1196 142.718C56.2244 142.718 55.671 143.764 55.671 145.591V148.79C55.671 150.61 56.1486 151.663 57.9452 151.663C59.4461 151.663 60.1436 151.125 60.3482 149.935C60.4316 149.465 60.8637 149.139 61.3413 149.139H62.5845C63.1833 149.139 63.6685 149.655 63.6078 150.253C63.2743 153.415 61.4322 154.711 57.9452 154.711C54.0716 154.711 52.2295 152.937 52.2295 148.897V145.599C52.2295 141.627 54.1777 139.679 58.0437 139.679C61.508 139.679 63.2743 140.937 63.6078 144.053C63.6761 144.682 63.1606 145.22 62.5314 145.22H61.4019V145.212Z" fill="#005DF5"/>
<path d="M76.8893 154.658H75.0472C74.5241 154.658 74.0693 154.309 73.9404 153.801L69.3391 136.396C69.2026 135.896 69.5816 135.403 70.1047 135.403H72.0226C72.3788 135.403 72.6896 135.638 72.7882 135.979L74.5241 142.044L75.8962 149.882L78.8829 136.715C78.9739 136.313 79.3302 136.025 79.7471 136.025H80.9979C81.4072 136.025 81.7559 136.305 81.8545 136.699L85.0838 149.882L86.2057 142.044L87.9037 136.093C88.0175 135.684 88.3965 135.403 88.821 135.403H90.4205C91.0421 135.403 91.4969 135.987 91.3453 136.593L87.0699 153.665C86.9259 154.248 86.4028 154.658 85.8039 154.658H84.1817C83.5904 154.658 83.075 154.264 82.9158 153.695L80.3536 144.272L77.996 153.786C77.8671 154.294 77.4123 154.658 76.8817 154.658H76.8893Z" fill="white"/>
<path d="M102.163 150.11C102.875 150.11 103.413 150.777 103.254 151.474C102.754 153.642 100.927 154.681 97.6825 154.681C93.8089 154.681 91.9668 152.907 91.9668 148.934V145.591C91.9668 141.892 93.8164 139.845 97.6825 139.845C101.549 139.845 103.398 141.619 103.398 145.591V148.51H95.4084V148.881C95.4084 151.254 96.3332 151.701 97.728 151.701C98.956 151.701 99.6459 151.368 99.9036 150.769C100.078 150.367 100.48 150.11 100.912 150.11H102.155H102.163ZM95.4084 145.69H100.078C100.078 143.84 99.7292 142.817 97.7811 142.817C95.8329 142.817 95.4084 143.916 95.4084 145.69Z" fill="white"/>
<path d="M116.399 150.11C117.036 150.11 117.498 150.701 117.369 151.322C116.922 153.589 115.087 154.681 111.76 154.681C107.886 154.681 106.044 152.907 106.044 148.934V145.591C106.044 141.892 107.894 139.845 111.76 139.845C115.626 139.845 117.475 141.619 117.475 145.591V148.51H109.485V148.881C109.485 151.254 110.41 151.701 111.805 151.701C113.086 151.701 113.776 151.345 114.011 150.693C114.14 150.322 114.527 150.102 114.913 150.102H116.391L116.399 150.11ZM109.493 145.69H114.163C114.163 143.84 113.814 142.817 111.866 142.817C109.918 142.817 109.493 143.916 109.493 145.69Z" fill="white"/>
<path d="M128.369 154.165L124.571 148.237H123.6V153.612C123.6 154.173 123.146 154.627 122.585 154.627H121.197C120.636 154.627 120.182 154.173 120.182 153.612V136.139C120.182 135.706 120.538 135.35 120.97 135.35H122.812C123.244 135.35 123.6 135.706 123.6 136.139V145.137H124.525L127.876 140.323C128.065 140.058 128.369 139.891 128.695 139.891H130.074C130.885 139.891 131.363 140.808 130.885 141.475L127.292 146.509L131.507 153.058C131.939 153.733 131.454 154.62 130.65 154.62H129.218C128.869 154.62 128.551 154.445 128.361 154.15L128.369 154.165Z" fill="white"/>
<path d="M65.8366 0C38.1222 0 15.646 22.4762 15.646 50.2057C15.646 77.9353 38.1222 100.396 65.8366 100.396C93.551 100.396 116.027 77.9201 116.027 50.2057C116.027 22.4914 93.5661 0 65.8366 0ZM58.9232 42.8375L48.788 69.5816C48.5 70.3472 47.7722 70.8399 46.9763 70.8399H42.6175C41.2681 70.8399 40.3282 69.4906 40.8057 68.2171L48.2953 48.4698L46.1576 42.8375L36.0224 69.5816C35.7495 70.3472 35.0218 70.8399 34.2258 70.8399H29.8519C28.5177 70.8399 27.5777 69.4906 28.0553 68.2171L42.1626 31.0119C42.2839 30.5647 42.5644 30.1856 42.9434 29.9203C42.9586 29.9203 42.9586 29.9051 42.9586 29.9051C43.1254 29.799 43.2997 29.7232 43.4817 29.6626C43.4817 29.6626 43.4918 29.6575 43.512 29.6474C43.6939 29.5867 43.8834 29.5564 44.0805 29.5564H48.2574C48.4545 29.5564 48.6592 29.5867 48.8411 29.6474C48.8411 29.6474 48.8562 29.6474 48.8714 29.6626C49.0533 29.7232 49.2277 29.799 49.3793 29.9051C49.3793 29.9051 49.3945 29.9203 49.4096 29.9203C49.7962 30.178 50.054 30.5647 50.1904 31.0119L52.5404 37.2431L54.9055 31.0119C55.0268 30.5647 55.3224 30.1856 55.7015 29.9203C55.7015 29.9203 55.7015 29.9051 55.7166 29.9051C55.8682 29.799 56.0426 29.7232 56.2245 29.6626C56.2245 29.6626 56.2346 29.6575 56.2548 29.6474C56.4368 29.5867 56.6263 29.5564 56.8385 29.5564H61.0002C61.2125 29.5564 61.4172 29.5867 61.5991 29.6474L61.6143 29.6626C61.7962 29.7232 61.9857 29.799 62.1373 29.9051L62.1525 29.9203C62.5391 30.178 62.812 30.5647 62.9484 31.0119L66.9358 41.7914C67.0343 42.0643 67.0343 42.3675 66.9358 42.6404L63.9642 50.4408C63.5624 51.4869 62.0843 51.4793 61.6976 50.4256L58.9156 42.8299L58.9232 42.8375ZM89.5106 69.3693C89.3741 69.8166 89.0936 70.1956 88.7146 70.476C88.7146 70.476 88.6994 70.4761 88.6994 70.4912C88.5478 70.5822 88.3583 70.6731 88.1764 70.7338C88.1764 70.7338 88.1612 70.7338 88.1461 70.7489C87.9793 70.7944 87.7746 70.8399 87.5775 70.8399H83.4007C83.2036 70.8399 82.9989 70.7944 82.8321 70.7489C82.817 70.7338 82.8018 70.7338 82.8018 70.7338C82.6199 70.6731 82.4455 70.5822 82.2787 70.4912C82.2787 70.4761 82.2636 70.476 82.2636 70.476C81.877 70.2031 81.6041 69.8166 81.4676 69.3693L79.1177 63.1532L76.7677 69.3693C76.6313 69.8166 76.3508 70.1956 75.9718 70.476C75.9718 70.476 75.9566 70.4761 75.9414 70.4912C75.7898 70.5822 75.6155 70.6731 75.4335 70.7338C75.4335 70.7338 75.4184 70.7338 75.4032 70.7489C75.2213 70.7944 75.0166 70.8399 74.8195 70.8399H70.6578C70.4607 70.8399 70.256 70.7944 70.0741 70.7489C70.0589 70.7338 70.0438 70.7338 70.0438 70.7338C69.8619 70.6731 69.6875 70.5822 69.5359 70.4912L69.5207 70.476C69.1341 70.2031 68.8461 69.8166 68.7248 69.3693L68.2017 68.02C68.1562 67.9442 68.1108 67.8683 68.0804 67.7925L65.0861 59.636C64.9876 59.3631 64.9876 59.0598 65.0861 58.7869L68.0653 50.9486C68.4595 49.9025 69.9452 49.9101 70.3319 50.9562L72.7576 57.5361L82.8776 30.8072C83.1657 30.0719 83.8934 29.564 84.6893 29.564H89.0481C90.3975 29.564 91.3375 30.9133 90.8599 32.1717L83.3703 51.9341L85.4929 57.5664L95.6432 30.8072C95.9313 30.0719 96.6438 29.564 97.4398 29.564H101.814C103.148 29.564 104.103 30.9133 103.61 32.1717L89.5181 69.3769L89.5106 69.3693Z" fill="white"/>
<path d="M124.654 7.79135C124.654 4.19037 121.735 1.2712 118.134 1.2712C114.533 1.2712 111.613 4.19037 111.613 7.79135C111.613 11.3923 114.533 14.3115 118.134 14.3115V15.5827C113.831 15.5827 110.342 12.0944 110.342 7.79135C110.342 3.48831 113.831 0 118.134 0C122.437 0 125.925 3.48831 125.925 7.79135C125.925 12.0944 122.437 15.5827 118.134 15.5827V14.3115C121.735 14.3115 124.654 11.3923 124.654 7.79135Z" fill="white"/>
<path d="M118.665 8.66816H116.488L116.468 7.35794H118.413C118.708 7.35122 118.984 7.30419 119.239 7.21684C119.495 7.12277 119.7 6.98839 119.854 6.8137C120.009 6.63228 120.086 6.41056 120.086 6.14851C120.086 5.81928 120.029 5.55724 119.915 5.36238C119.807 5.16753 119.619 5.02979 119.35 4.94916C119.088 4.86181 118.732 4.81814 118.282 4.81814H116.941V12.0646H115.48V3.51801H118.282C118.947 3.51801 119.521 3.61543 120.005 3.81028C120.496 3.99842 120.872 4.28734 121.134 4.67704C121.403 5.06003 121.537 5.54044 121.537 6.11828C121.537 6.48111 121.453 6.80362 121.285 7.08582C121.117 7.36802 120.869 7.61326 120.539 7.82156C120.217 8.02313 119.82 8.18774 119.35 8.31541C119.33 8.31541 119.306 8.33892 119.28 8.38596C119.259 8.43299 119.239 8.45651 119.219 8.45651C119.105 8.5237 119.031 8.57409 118.997 8.60768C118.971 8.63456 118.94 8.65136 118.907 8.65808C118.88 8.6648 118.799 8.66816 118.665 8.66816ZM118.564 8.66816L118.776 7.67038C119.824 7.67038 120.539 7.89882 120.922 8.35572C121.305 8.8059 121.497 9.38037 121.497 10.0792V10.6234C121.497 10.872 121.507 11.1105 121.527 11.339C121.554 11.5607 121.601 11.7488 121.668 11.9034V12.0646H120.167C120.099 11.8899 120.059 11.6413 120.046 11.3188C120.039 10.9963 120.035 10.7611 120.035 10.6133V10.0892C120.035 9.59874 119.925 9.23927 119.703 9.01083C119.481 8.78238 119.102 8.66816 118.564 8.66816Z" fill="white"/>
</svg>
